:SAMPLES-PER-SECOND 30
:FULLY-SPECIFIED
:DEGREES
222
root  -26.2506 37.5962 3.37533 -46.5759 83.4452 -40.2874
RightUpLeg  -20.3321 -5.58701 6.11937
RightLeg  27.2614 2.88987 1.37493
RightFoot  -0.329507 0.375621 -3.88692
RightToes  -2.21189e-009 0 -3.6325e-017
Spine  5.55355 -3.92085 10.6694
Spine1  11.5135 -3.58281 3.06057
HEad  -5.75823 7.66024 -9.77606
LeftShoulder1  0.0703051 3.31604 -31.2872
LeftArm  -7.66906 7.75269 -40.3197
LeftForeArm  33.9255 -76.2251 -51.9195
LeftHand  -0.0125803 3.33708 -2.01049
RightShoulder  -0.663995 -5.43912 27.6181
RightArm  -9.96047 -22.9248 28.8527
RightForeArm  101.526 73.1516 137.15
RightHand  -0.0843053 -0.328058 -1.91747
LeftUpLeg  11.1033 -2.71414 6.34393
LeftLeg  50.1096 -16.8637 -20.0279
LeftFoot  2.75575 1.28326 -10.3349
LeftToes  -4.03379e-008 1.61488e-010 -5.81581e-011
223
root  -25.1678 37.5497 3.80744 -74.8401 83.5721 -68.2961
RightUpLeg  -18.855 -7.20062 7.92381
RightLeg  29.0501 1.82432 0.850324
RightFoot  -3.37116 0.262014 -4.06742
RightToes  -2.21189e-009 0 -3.6325e-017
Spine  7.48793 -4.18753 12.822
Spine1  10.5188 -3.52203 4.51487
HEad  -5.87748 6.10848 -9.41903
LeftShoulder1  0.0983671 3.24092 -31.3825
LeftArm  -7.37567 7.11781 -40.1401
LeftForeArm  32.5061 -75.9747 -50.6229
LeftHand  -0.0169135 3.53779 -2.06817
RightShoulder  -0.672708 -5.48726 27.2285
RightArm  -9.69717 -22.7366 28.8265
RightForeArm  101.396 73.2545 136.829
RightHand  -0.0912822 -0.129016 -1.99005
LeftUpLeg  4.3492 -4.92933 8.9271
LeftLeg  59.1702 -12.1603 -20.3636
LeftFoot  13.9444 3.26647 -15.1007
LeftToes  -4.03379e-008 1.61488e-010 -5.81581e-011
224
root  -23.9582 37.7404 4.1607 -89.1552 83.8785 -82.574
RightUpLeg  -16.6079 -9.22389 7.90977
RightLeg  29.2071 2.18987 1.06228
RightFoot  -5.93245 0.146625 -3.9536
RightToes  -2.21189e-009 0 -3.6325e-017
Spine  7.6905 -4.04815 14.8205
Spine1  10.7245 -2.66517 2.93047
HEad  -6.44091 3.99402 -8.20804
LeftShoulder1  0.128919 3.15347 -30.6757
LeftArm  -7.37054 6.41291 -40.3548
LeftForeArm  32.0061 -75.8726 -50.0985
LeftHand  -0.0193789 3.61757 -2.21839
RightShoulder  -0.710862 -5.59432 27.3311
RightArm  -9.36225 -22.0406 29.4093
RightForeArm  98.3203 73.8099 134.7
RightHand  -0.144048 0.676554 -2.87732
LeftUpLeg  -1.80739 -6.08392 9.18161
LeftLeg  64.9066 -7.41059 -16.2637
LeftFoot  14.1734 3.50196 -15.6269
LeftToes  -4.03379e-008 1.61488e-010 -5.81581e-011
225
root  -22.6336 38.1081 4.54881 -95.5387 85.1818 -89.3956
RightUpLeg  -14.1305 -11.364 6.5849
RightLeg  28.3518 3.73451 1.95763
RightFoot  -7.81627 0.0681952 -3.94011
RightToes  -2.21189e-009 0 -3.6325e-017
Spine  7.02204 -3.33554 14.2606
Spine1  10.7866 -1.97782 2.37457
HEad  -6.51576 2.97013 -7.48794
LeftShoulder1  0.121207 3.17707 -31.0063
LeftArm  -7.55283 6.3299 -39.6284
LeftForeArm  32.0927 -75.8869 -50.1655
LeftHand  -0.0230728 3.71768 -2.12211
RightShoulder  -0.581708 -5.22153 27.1225
RightArm  -8.80391 -21.5494 30.0621
RightForeArm  95.5727 74.3659 132.413
RightHand  -0.15791 0.0451257 -3.43266
LeftUpLeg  -7.70766 -6.68075 7.58296
LeftLeg  67.823 -4.79053 -12.1445
LeftFoot  8.62806 1.73115 -10.1866
LeftToes  -4.03379e-008 1.61488e-010 -5.81581e-011
226
root  -21.3512 38.431 4.95259 -92.7547 86.2521 -87.6781
RightUpLeg  -12.236 -11.6918 5.62862
RightLeg  27.038 4.56523 2.59698
RightFoot  -9.31272 0.00471597 -3.78681
RightToes  -2.21189e-009 0 -3.6325e-017
Spine  5.86576 -2.31493 14.0703
Spine1  10.6984 -0.926583 1.35725
HEad  -5.82399 2.32231 -6.97781
LeftShoulder1  0.14315 3.11506 -30.7015
LeftArm  -8.28135 6.59091 -39.4007
LeftForeArm  32.31 -75.9442 -50.4831
LeftHand  -0.0244552 3.62926 -1.98732
RightShoulder  -0.573253 -5.1807 27.4247
RightArm  -8.24397 -20.566 30.4296
RightForeArm  93.8199 75.0366 129.635
RightHand  -0.154763 1.202 -2.84438
LeftUpLeg  -13.5844 -6.85816 6.11662
LeftLeg  67.7856 -3.61707 -9.03826
LeftFoot  7.16819 0.873906 -5.67229
LeftToes  -4.03379e-008 1.61488e-010 -5.81581e-011
227
root  -20.0493 38.6914 5.34228 -81.1163 87.411 -76.9854
RightUpLeg  -10.0834 -11.6009 4.29233
RightLeg  25.559 5.26976 3.47816
RightFoot  -11.1336 -0.068978 -3.10246
RightToes  -2.21189e-009 0 -3.6325e-017
Spine  4.70641 -1.21703 13.123
Spine1  10.8311 -0.0804032 1.27402
HEad  -5.30307 2.31769 -6.85
LeftShoulder1  0.0473861 3.37545 -30.7561
LeftArm  -8.97734 6.83487 -39.1935
LeftForeArm  32.6347 -75.9734 -50.5649
LeftHand  -0.0199137 3.20338 -2.29917
RightShoulder  -0.579692 -5.21822 27.0605
RightArm  -7.34663 -19.3836 31.3117
RightForeArm  91.2034 75.4843 127.305
RightHand  -0.173251 0.824787 -3.33514
LeftUpLeg  -18.1775 -7.3371 4.38131
LeftLeg  64.7186 -3.28795 -6.9328
LeftFoot  5.38967 0.530145 -3.78354
LeftToes  -4.03379e-008 1.61488e-010 -5.81581e-011
228
root  -18.7363 38.9029 5.69262 -60.6015 88.1346 -57.3207
RightUpLeg  -7.71124 -12.1006 2.8583
RightLeg  23.9729 6.46399 4.74952
RightFoot  -12.9287 -0.118717 -2.25205
RightToes  -2.21189e-009 0 -3.6325e-017
Spine  3.82074 -0.243288 12.8147
Spine1  10.4186 0.822196 0.462408
HEad  -5.00378 1.9152 -7.36159
LeftShoulder1  0.0782157 3.29042 -30.6834
LeftArm  -9.56707 7.49002 -38.8562
LeftForeArm  33.2562 -76.0859 -51.1357
LeftHand  -0.0214982 3.42867 -2.71264
RightShoulder  -0.583969 -5.2256 27.1596
RightArm  -6.72521 -18.7526 31.543
RightForeArm  89.7702 75.796 125.618
RightHand  -0.152957 1.06436 -2.86042
LeftUpLeg  -21.6794 -7.99249 2.75162
LeftLeg  59.0332 -3.93532 -6.51985
LeftFoot  2.73817 0.103 -1.00162
LeftToes  -4.03379e-008 1.61488e-010 -5.81581e-011
229
root  -17.3946 39.0386 5.99856 -25.363 87.987 -22.9187
RightUpLeg  -5.32579 -12.3725 1.63893
RightLeg  22.4318 8.0468 6.0148
RightFoot  -14.4917 -0.147088 -1.76856
RightToes  -2.21189e-009 0 -3.6325e-017
Spine  2.2862 0.711455 13.1296
Spine1  10.9953 1.84823 -1.18104
HEad  -4.96881 1.83777 -7.18095
LeftShoulder1  0.147792 3.09579 -30.0747
LeftArm  -10.577 7.96734 -39.0498
LeftForeArm  34.2012 -76.2823 -52.2494
LeftHand  -0.0304034 3.91141 -2.38352
RightShoulder  -0.609677 -5.28768 27.426
RightArm  -6.46451 -17.6702 32.1385
RightForeArm  88.5924 76.1061 123.89
RightHand  -0.158864 0.6852 -3.1443
LeftUpLeg  -23.8162 -8.22321 1.41196
LeftLeg  50.7077 -4.72508 -5.77226
LeftFoot  0.597863 0.0481825 -0.507009
LeftToes  -4.03379e-008 1.61488e-010 -5.81581e-011
230
root  -16.075 39.1038 6.30203 -4.00719 87.795 -2.46584
RightUpLeg  -3.25513 -12.1165 0.765275
RightLeg  20.9973 8.5793 6.41729
RightFoot  -15.7778 -0.179836 -1.8759
RightToes  -2.21189e-009 0 -3.6325e-017
Spine  1.29405 1.25003 12.776
Spine1  10.7068 2.21777 -2.00065
HEad  -4.94558 1.81176 -7.13378
LeftShoulder1  0.098164 3.23346 -30.1873
LeftArm  -11.0873 8.50566 -38.5039
LeftForeArm  35.4143 -76.5328 -53.7935
LeftHand  -0.0262908 3.3947 -2.12401
RightShoulder  -0.483993 -4.94373 26.7769
RightArm  -6.13913 -17.2934 33.3336
RightForeArm  86.8276 76.252 122.749
RightHand  -0.202106 -0.0820045 -4.42657
LeftUpLeg  -24.8728 -8.41766 -0.0102779
LeftLeg  39.8412 -5.0094 -4.09792
LeftFoot  0.230378 0.040051 -0.410932
LeftToes  -4.03379e-008 1.61488e-010 -5.81581e-011
231
root  -14.7572 39.132 6.60496 8.89204 87.4153 9.51605
RightUpLeg  -1.18212 -11.9617 0.197968
RightLeg  19.382 8.84607 6.58209
RightFoot  -16.4877 -0.238626 -2.86327
RightToes  -2.21189e-009 0 -3.6325e-017
Spine  -0.388119 1.76735 12.2585
Spine1  11.5843 2.54218 -2.7235
HEad  -5.50061 2.25017 -7.43353
LeftShoulder1  0.0892354 3.25749 -30.0868
LeftArm  -11.8591 8.68861 -38.3594
LeftForeArm  36.8336 -76.7481 -55.0765
LeftHand  -0.0218962 3.21919 -2.67696
RightShoulder  -0.496926 -4.98087 26.8024
RightArm  -6.04175 -16.0047 34.0588
RightForeArm  84.6666 76.6106 120.31
RightHand  -0.207106 -0.147121 -4.59689
LeftUpLeg  -24.6273 -7.91358 -1.44014
LeftLeg  26.7876 -5.07811 -2.46969
LeftFoot  0.379352 0.09715 -0.962792
LeftToes  -4.03379e-008 1.61488e-010 -5.81581e-011
232
root  -13.4358 39.1197 6.94342 15.1258 86.8223 14.8183
RightUpLeg  0.742693 -11.2773 0.326132
RightLeg  17.7026 8.16486 5.98875
RightFoot  -16.5994 -0.338494 -4.90687
RightToes  -2.21189e-009 0 -3.6325e-017
Spine  -1.85712 2.28112 11.5798
Spine1  12.0854 2.98003 -3.49178
HEad  -5.8915 2.38336 -7.14338
LeftShoulder1  0.0787283 3.28353 -29.6367
LeftArm  -12.3754 9.13579 -38.3294
LeftForeArm  38.5435 -76.9829 -56.5625
LeftHand  -0.0249201 3.4939 -2.71693
RightShoulder  -0.552451 -5.13339 27.1269
RightArm  -5.35467 -15.4374 34.3527
RightForeArm  82.4542 76.608 119.795
RightHand  -0.22538 -0.187709 -5.05216
LeftUpLeg  -23.378 -6.05426 -3.27951
LeftLeg  12.9502 -3.89157 -0.7298
LeftFoot  0.641044 0.250273 -2.42107
LeftToes  -4.03379e-008 1.61488e-010 -5.81581e-011
233
root  -12.0839 38.9607 7.26751 22.9863 86.7908 22.1175
RightUpLeg  2.77632 -10.6239 0.542563
RightLeg  16.8283 7.02982 4.98306
RightFoot  -18.0863 -0.463217 -5.77361
RightToes  -2.21189e-009 0 -3.6325e-017
Spine  -3.26564 2.36103 10.4146
Spine1  12.8552 2.95966 -3.68025
HEad  -6.0866 2.71694 -6.48326
LeftShoulder1  0.0858942 3.26175 -29.3443
LeftArm  -12.8494 9.72152 -38.1885
LeftForeArm  41.0049 -77.3384 -59.2128
LeftHand  -0.029808 3.60282 -1.95724
RightShoulder  -0.559777 -5.1586 27.0583
RightArm  -4.92828 -14.6873 34.9486
RightForeArm  79.966 76.7419 118.394
RightHand  -0.265751 -0.456956 -6.21717
LeftUpLeg  -21.7457 -4.44305 -5.49364
LeftLeg  1.27638 0.321135 -0.0927622
LeftFoot  0.224729 0.373354 -3.72686
LeftToes  -4.03379e-008 1.61488e-010 -5.81581e-011
234
root  -10.6589 38.6367 7.53719 22.4348 86.9751 21.3947
RightUpLeg  4.86791 -11.6285 0.257393
RightLeg  17.6497 7.96634 5.50869
RightFoot  -20.1942 -0.620812 -6.26133
RightToes  -2.21189e-009 0 -3.6325e-017
Spine  -4.33896 2.27431 10.2857
Spine1  13.528 2.97094 -4.41158
HEad  -6.37431 3.02831 -5.82098
LeftShoulder1  0.0291492 3.42163 -29.3132
LeftArm  -13.1394 9.54713 -37.7743
LeftForeArm  42.1682 -77.4758 -60.2736
LeftHand  -0.0273758 3.5676 -2.26549
RightShoulder  -0.520051 -5.03556 27.1393
RightArm  -4.56494 -14.3533 35.3159
RightForeArm  78.5374 76.9069 116.982
RightHand  -0.299979 -0.118554 -6.61169
LeftUpLeg  -21.0806 -4.93588 -6.40929
LeftLeg  -4.21544 10.1251 -1.19068
LeftFoot  -1.01668 0.470832 -5.10962
LeftToes  -4.03379e-008 1.61488e-010 -5.81581e-011
